<svg xmlns="http://www.w3.org/2000/svg" style="display:none">
  <symbol id="i-home" viewBox="0 0 24 24" fill="none" stroke="currentColor" stroke-width="1.6" stroke-linecap="round" stroke-linejoin="round"><path d="M3 10.5 12 3l9 7.5"></path><path d="M5 9.5V21h14V9.5"></path><path d="M10 21v-5h4v5"></path></symbol>
  <symbol id="i-share" viewBox="0 0 24 24" fill="none" stroke="currentColor" stroke-width="1.7" stroke-linecap="round" stroke-linejoin="round"><circle cx="18" cy="5" r="3"></circle><circle cx="6" cy="12" r="3"></circle><circle cx="18" cy="19" r="3"></circle><path d="M8.6 13.5l6.8 4"></path><path d="M15.4 6.5l-6.8 4"></path></symbol>
  <symbol id="i-chevron-d" viewBox="0 0 24 24" fill="none" stroke="currentColor" stroke-width="1.9" stroke-linecap="round" stroke-linejoin="round"><path d="M6 9l6 6 6-6"></path></symbol>
  <symbol id="i-phone" viewBox="0 0 24 24" fill="none" stroke="currentColor" stroke-width="1.6" stroke-linecap="round" stroke-linejoin="round"><path d="M22 16.92v3a2 2 0 0 1-2.18 2 19.79 19.79 0 0 1-8.63-3.07 19.5 19.5 0 0 1-6-6 19.79 19.79 0 0 1-3.07-8.67A2 2 0 0 1 4.11 2h3a2 2 0 0 1 2 1.72c.13.96.36 1.9.7 2.81a2 2 0 0 1-.45 2.11L8.09 9.91a16 16 0 0 0 6 6l1.27-1.27a2 2 0 0 1 2.11-.45c.9.34 1.85.57 2.81.7A2 2 0 0 1 22 16.92z"></path></symbol>
  <symbol id="i-accessibility" viewBox="0 0 24 24" fill="none" stroke="currentColor" stroke-width="1.7" stroke-linecap="round" stroke-linejoin="round"><circle cx="12" cy="4.3" r="1.4" fill="currentColor" stroke="none"></circle><path d="M4.8 8.2c2.2 1 4.6 1.5 7.2 1.5s5-.5 7.2-1.5"></path><path d="M12 9.7v4.1"></path><path d="M12 13.8l-2.6 6"></path><path d="M12 13.8l2.6 6"></path></symbol>
  <symbol id="i-scale" viewBox="0 0 24 24" fill="none" stroke="currentColor" stroke-width="1.6" stroke-linecap="round" stroke-linejoin="round"><path d="M12 3v18"></path><path d="M6 21h12"></path><path d="M3 8h18"></path><path d="M18 3h-5l-1 3-1-3H6"></path><path d="M4 8l-2 6a4 4 0 0 0 8 0l-2-6"></path><path d="M20 8l-2 6a4 4 0 0 0 8 0l-2-6"></path></symbol>
  <symbol id="i-gavel" viewBox="0 0 24 24" fill="none" stroke="currentColor" stroke-width="1.6" stroke-linecap="round" stroke-linejoin="round"><path d="M14 13l-8 8"></path><path d="M2 22h10"></path><path d="M16 8l4 4"></path><path d="M10.5 2.5l9 9L17 14l-9-9z"></path></symbol>
  <symbol id="i-shield" viewBox="0 0 24 24" fill="none" stroke="currentColor" stroke-width="1.6" stroke-linecap="round" stroke-linejoin="round"><path d="M12 22s8-4 8-10V5l-8-3-8 3v7c0 6 8 10 8 10z"></path><path d="m9 12 2 2 4-4"></path></symbol>
  <symbol id="i-brain" viewBox="0 0 24 24" fill="none" stroke="currentColor" stroke-width="1.6" stroke-linecap="round" stroke-linejoin="round"><path d="M9.5 2a2.5 2.5 0 0 0-2.5 2.5V5a2.5 2.5 0 0 0-2 4.5A2.5 2.5 0 0 0 5 14a2.5 2.5 0 0 0 2 4.5V19a2.5 2.5 0 0 0 5 0V4.5A2.5 2.5 0 0 0 9.5 2z"></path><path d="M14.5 2a2.5 2.5 0 0 1 2.5 2.5V5a2.5 2.5 0 0 1 2 4.5A2.5 2.5 0 0 1 19 14a2.5 2.5 0 0 1-2 4.5V19a2.5 2.5 0 0 1-5 0"></path></symbol>
  <symbol id="i-file" viewBox="0 0 24 24" fill="none" stroke="currentColor" stroke-width="1.6" stroke-linecap="round" stroke-linejoin="round"><path d="M14 2H6a2 2 0 0 0-2 2v16a2 2 0 0 0 2 2h12a2 2 0 0 0 2-2V8z"></path><path d="M14 2v6h6"></path><path d="M9 13h6M9 17h6M9 9h1"></path></symbol>
  <symbol id="i-folder" viewBox="0 0 24 24" fill="none" stroke="currentColor" stroke-width="1.6" stroke-linecap="round" stroke-linejoin="round"><path d="M3 7a2 2 0 0 1 2-2h4l2 2h8a2 2 0 0 1 2 2v9a2 2 0 0 1-2 2H5a2 2 0 0 1-2-2z"></path></symbol>
  <symbol id="i-book" viewBox="0 0 24 24" fill="none" stroke="currentColor" stroke-width="1.6" stroke-linecap="round" stroke-linejoin="round"><path d="M4 19.5A2.5 2.5 0 0 1 6.5 17H20"></path><path d="M6.5 2H20v20H6.5A2.5 2.5 0 0 1 4 19.5v-15A2.5 2.5 0 0 1 6.5 2z"></path></symbol>
  <symbol id="i-quote" viewBox="0 0 24 24" fill="currentColor"><path d="M9 7H5a2 2 0 0 0-2 2v4a2 2 0 0 0 2 2h2v2a2 2 0 0 1-2 2H4v2h1a4 4 0 0 0 4-4V7zm10 0h-4a2 2 0 0 0-2 2v4a2 2 0 0 0 2 2h2v2a2 2 0 0 1-2 2h-1v2h1a4 4 0 0 0 4-4V7z"></path></symbol>
  <symbol id="i-check" viewBox="0 0 24 24" fill="none" stroke="currentColor" stroke-width="2.2" stroke-linecap="round" stroke-linejoin="round"><path d="m5 12 5 5L20 7"></path></symbol>
  <symbol id="i-x" viewBox="0 0 24 24" fill="none" stroke="currentColor" stroke-width="2" stroke-linecap="round" stroke-linejoin="round"><path d="M18 6 6 18M6 6l12 12"></path></symbol>
  <symbol id="i-spark" viewBox="0 0 24 24" fill="none" stroke="currentColor" stroke-width="1.6" stroke-linecap="round" stroke-linejoin="round"><path d="M12 2v4M12 18v4M4.93 4.93l2.83 2.83M16.24 16.24l2.83 2.83M2 12h4M18 12h4M4.93 19.07l2.83-2.83M16.24 7.76l2.83-2.83"></path></symbol>
  <symbol id="i-search" viewBox="0 0 24 24" fill="none" stroke="currentColor" stroke-width="1.6" stroke-linecap="round" stroke-linejoin="round"><circle cx="11" cy="11" r="7"></circle><path d="m20 20-3.5-3.5"></path></symbol>
  <symbol id="i-chevron-l" viewBox="0 0 24 24" fill="none" stroke="currentColor" stroke-width="1.8" stroke-linecap="round" stroke-linejoin="round"><path d="m15 18-6-6 6-6"></path></symbol>
  <symbol id="i-chevron-r" viewBox="0 0 24 24" fill="none" stroke="currentColor" stroke-width="1.8" stroke-linecap="round" stroke-linejoin="round"><path d="m9 18 6-6-6-6"></path></symbol>
  <symbol id="i-send" viewBox="0 0 24 24" fill="none" stroke="currentColor" stroke-width="1.6" stroke-linecap="round" stroke-linejoin="round"><path d="m22 2-11 11"></path><path d="M22 2 15 22l-4-9-9-4z"></path></symbol>
  <symbol id="i-plus" viewBox="0 0 24 24" fill="none" stroke="currentColor" stroke-width="2" stroke-linecap="round" stroke-linejoin="round"><path d="M12 5v14M5 12h14"></path></symbol>
  <symbol id="i-settings" viewBox="0 0 24 24" fill="none" stroke="currentColor" stroke-width="1.6" stroke-linecap="round" stroke-linejoin="round"><circle cx="12" cy="12" r="3"></circle><path d="M19.4 15a1.65 1.65 0 0 0 .33 1.82l.06.06a2 2 0 1 1-2.83 2.83l-.06-.06a1.65 1.65 0 0 0-1.82-.33 1.65 1.65 0 0 0-1 1.51V21a2 2 0 0 1-4 0v-.09A1.65 1.65 0 0 0 9 19.4a1.65 1.65 0 0 0-1.82.33l-.06.06a2 2 0 1 1-2.83-2.83l.06-.06a1.65 1.65 0 0 0 .33-1.82 1.65 1.65 0 0 0-1.51-1H3a2 2 0 0 1 0-4h.09a1.65 1.65 0 0 0 1.51-1 1.65 1.65 0 0 0-.33-1.82l-.06-.06a2 2 0 1 1 2.83-2.83l.06.06A1.65 1.65 0 0 0 9 4.6a1.65 1.65 0 0 0 1-1.51V3a2 2 0 0 1 4 0v.09a1.65 1.65 0 0 0 1 1.51 1.65 1.65 0 0 0 1.82-.33l.06-.06a2 2 0 1 1 2.83 2.83l-.06.06a1.65 1.65 0 0 0-.33 1.82V9a1.65 1.65 0 0 0 1.51 1H21a2 2 0 0 1 0 4h-.09a1.65 1.65 0 0 0-1.51 1z"></path></symbol>
  <symbol id="i-user" viewBox="0 0 24 24" fill="none" stroke="currentColor" stroke-width="1.6" stroke-linecap="round" stroke-linejoin="round"><path d="M20 21v-2a4 4 0 0 0-4-4H8a4 4 0 0 0-4 4v2"></path><circle cx="12" cy="7" r="4"></circle></symbol>
  <symbol id="i-calendar" viewBox="0 0 24 24" fill="none" stroke="currentColor" stroke-width="1.6" stroke-linecap="round" stroke-linejoin="round"><rect x="3" y="4" width="18" height="18" rx="2"></rect><path d="M16 2v4M8 2v4M3 10h18"></path></symbol>
  <symbol id="i-logout" viewBox="0 0 24 24" fill="none" stroke="currentColor" stroke-width="1.6" stroke-linecap="round" stroke-linejoin="round"><path d="M9 21H5a2 2 0 0 1-2-2V5a2 2 0 0 1 2-2h4"></path><path d="m16 17 5-5-5-5M21 12H9"></path></symbol>
  <symbol id="i-compass" viewBox="0 0 24 24" fill="none" stroke="currentColor" stroke-width="1.7" stroke-linecap="round" stroke-linejoin="round"><circle cx="12" cy="12" r="9.2"></circle><polygon points="15.9 8.1 13.6 13.6 8.1 15.9 10.4 10.4 15.9 8.1"></polygon></symbol>
  <symbol id="i-whatsapp" viewBox="0 0 24 24"><path fill="currentColor" d="M12 2C6.48 2 2 6.48 2 12c0 1.85.5 3.58 1.38 5.07L2 22l5.05-1.32A9.94 9.94 0 0 0 12 22c5.52 0 10-4.48 10-10S17.52 2 12 2zm0 18.2c-1.62 0-3.13-.44-4.43-1.2l-.32-.19-2.99.78.8-2.92-.2-.33A8.16 8.16 0 0 1 3.8 12 8.2 8.2 0 1 1 12 20.2z"/><path fill="currentColor" d="M17.5 14.4c-.3-.15-1.77-.87-2.04-.97-.27-.1-.47-.15-.67.15-.2.3-.77.97-.94 1.17-.17.2-.35.22-.65.07-.3-.15-1.26-.46-2.4-1.48-.89-.79-1.49-1.77-1.66-2.07-.17-.3-.02-.46.13-.61.14-.13.3-.35.45-.52.15-.17.2-.3.3-.5.1-.2.05-.37-.02-.52-.08-.15-.67-1.62-.92-2.22-.24-.58-.49-.5-.67-.51h-.57c-.2 0-.52.07-.8.37-.27.3-1.05 1.02-1.05 2.5 0 1.47 1.08 2.9 1.23 3.1.15.2 2.12 3.24 5.14 4.54.72.31 1.28.5 1.71.64.72.23 1.38.2 1.9.12.58-.09 1.77-.72 2.02-1.42.25-.7.25-1.3.17-1.42-.07-.12-.27-.2-.57-.35z"/></symbol>
</svg>
